<mxfile host="app.diagrams.net" modified="2024-06-27T10:39:03.383Z" agent="Mozilla/5.0 (Windows NT 10.0; Win64; x64) AppleWebKit/537.36 (KHTML, like Gecko) Chrome/125.0.0.0 Safari/537.36" etag="6bYZj0U0x5HZT1wYtl94" version="24.6.3" type="device">
  <diagram name="Page-1" id="Lubvmyx_OsblPXedXswT">
    <mxGraphModel dx="840" dy="494" grid="1" gridSize="10" guides="1" tooltips="1" connect="1" arrows="1" fold="1" page="1" pageScale="1" pageWidth="827" pageHeight="1169" math="0" shadow="0">
      <root>
        <mxCell id="0" />
        <mxCell id="1" parent="0" />
        <mxCell id="6kc5aPjfgd5-RUPwg-ue-2" value="" style="rounded=0;whiteSpace=wrap;html=1;align=center;" vertex="1" parent="1">
          <mxGeometry x="230" y="220" width="384" height="190" as="geometry" />
        </mxCell>
        <mxCell id="6kc5aPjfgd5-RUPwg-ue-3" value="User" style="shape=umlActor;verticalLabelPosition=bottom;verticalAlign=top;html=1;outlineConnect=0;" vertex="1" parent="1">
          <mxGeometry x="20" y="273" width="30" height="60" as="geometry" />
        </mxCell>
        <mxCell id="6kc5aPjfgd5-RUPwg-ue-6" style="edgeStyle=orthogonalEdgeStyle;rounded=0;orthogonalLoop=1;jettySize=auto;html=1;entryX=-0.002;entryY=0.348;entryDx=0;entryDy=0;entryPerimeter=0;" edge="1" parent="1" source="6kc5aPjfgd5-RUPwg-ue-3" target="6kc5aPjfgd5-RUPwg-ue-19">
          <mxGeometry relative="1" as="geometry">
            <mxPoint x="414.0000000000001" y="302.64" as="targetPoint" />
          </mxGeometry>
        </mxCell>
        <mxCell id="6kc5aPjfgd5-RUPwg-ue-8" value="Add/Update Items" style="edgeLabel;html=1;align=center;verticalAlign=middle;resizable=0;points=[];" vertex="1" connectable="0" parent="6kc5aPjfgd5-RUPwg-ue-6">
          <mxGeometry x="-0.0635" y="1" relative="1" as="geometry">
            <mxPoint as="offset" />
          </mxGeometry>
        </mxCell>
        <mxCell id="6kc5aPjfgd5-RUPwg-ue-12" value="Trello" style="rounded=0;whiteSpace=wrap;html=1;" vertex="1" parent="1">
          <mxGeometry x="707" y="270" width="120" height="90" as="geometry" />
        </mxCell>
        <mxCell id="6kc5aPjfgd5-RUPwg-ue-16" value="" style="endArrow=classic;html=1;rounded=0;exitX=0;exitY=0.75;exitDx=0;exitDy=0;entryX=1;entryY=0.75;entryDx=0;entryDy=0;" edge="1" parent="1" source="6kc5aPjfgd5-RUPwg-ue-12" target="6kc5aPjfgd5-RUPwg-ue-21">
          <mxGeometry width="50" height="50" relative="1" as="geometry">
            <mxPoint x="560" y="370" as="sourcePoint" />
            <mxPoint x="610" y="320" as="targetPoint" />
          </mxGeometry>
        </mxCell>
        <mxCell id="6kc5aPjfgd5-RUPwg-ue-17" value="" style="endArrow=classic;html=1;rounded=0;entryX=0;entryY=0.25;entryDx=0;entryDy=0;exitX=1;exitY=0.25;exitDx=0;exitDy=0;" edge="1" parent="1" source="6kc5aPjfgd5-RUPwg-ue-21" target="6kc5aPjfgd5-RUPwg-ue-12">
          <mxGeometry width="50" height="50" relative="1" as="geometry">
            <mxPoint x="560" y="370" as="sourcePoint" />
            <mxPoint x="610" y="320" as="targetPoint" />
          </mxGeometry>
        </mxCell>
        <mxCell id="6kc5aPjfgd5-RUPwg-ue-18" value="HTTP&lt;div&gt;Requests&lt;/div&gt;" style="text;html=1;align=center;verticalAlign=middle;resizable=0;points=[];autosize=1;strokeColor=none;fillColor=none;" vertex="1" parent="1">
          <mxGeometry x="610" y="295" width="70" height="40" as="geometry" />
        </mxCell>
        <mxCell id="6kc5aPjfgd5-RUPwg-ue-19" value="Flask&lt;div&gt;Web Server&lt;/div&gt;" style="rounded=0;whiteSpace=wrap;html=1;" vertex="1" parent="1">
          <mxGeometry x="270" y="268" width="100" height="90" as="geometry" />
        </mxCell>
        <mxCell id="6kc5aPjfgd5-RUPwg-ue-7" style="edgeStyle=orthogonalEdgeStyle;rounded=0;orthogonalLoop=1;jettySize=auto;html=1;exitX=-0.006;exitY=0.614;exitDx=0;exitDy=0;exitPerimeter=0;" edge="1" parent="1" source="6kc5aPjfgd5-RUPwg-ue-19" target="6kc5aPjfgd5-RUPwg-ue-3">
          <mxGeometry relative="1" as="geometry">
            <mxPoint x="413.6" y="320.5" as="sourcePoint" />
            <Array as="points">
              <mxPoint x="269" y="322" />
            </Array>
          </mxGeometry>
        </mxCell>
        <mxCell id="6kc5aPjfgd5-RUPwg-ue-9" value="Serves Webpage" style="edgeLabel;html=1;align=center;verticalAlign=middle;resizable=0;points=[];" vertex="1" connectable="0" parent="6kc5aPjfgd5-RUPwg-ue-7">
          <mxGeometry x="0.1139" y="1" relative="1" as="geometry">
            <mxPoint x="3" y="-3" as="offset" />
          </mxGeometry>
        </mxCell>
        <mxCell id="6kc5aPjfgd5-RUPwg-ue-20" value="Todo App" style="text;html=1;align=center;verticalAlign=middle;whiteSpace=wrap;rounded=0;" vertex="1" parent="1">
          <mxGeometry x="230" y="220" width="60" height="30" as="geometry" />
        </mxCell>
        <mxCell id="6kc5aPjfgd5-RUPwg-ue-21" value="Python&lt;div&gt;Backend&lt;/div&gt;" style="rounded=0;whiteSpace=wrap;html=1;" vertex="1" parent="1">
          <mxGeometry x="480" y="268" width="100" height="90" as="geometry" />
        </mxCell>
        <mxCell id="6kc5aPjfgd5-RUPwg-ue-22" value="" style="endArrow=classic;html=1;rounded=0;exitX=1;exitY=0.25;exitDx=0;exitDy=0;entryX=0;entryY=0.25;entryDx=0;entryDy=0;" edge="1" parent="1" source="6kc5aPjfgd5-RUPwg-ue-19" target="6kc5aPjfgd5-RUPwg-ue-21">
          <mxGeometry width="50" height="50" relative="1" as="geometry">
            <mxPoint x="400" y="350" as="sourcePoint" />
            <mxPoint x="450" y="300" as="targetPoint" />
          </mxGeometry>
        </mxCell>
        <mxCell id="6kc5aPjfgd5-RUPwg-ue-25" value="CRUD Request" style="edgeLabel;html=1;align=center;verticalAlign=middle;resizable=0;points=[];" vertex="1" connectable="0" parent="6kc5aPjfgd5-RUPwg-ue-22">
          <mxGeometry x="-0.1307" y="1" relative="1" as="geometry">
            <mxPoint as="offset" />
          </mxGeometry>
        </mxCell>
        <mxCell id="6kc5aPjfgd5-RUPwg-ue-23" value="" style="endArrow=classic;html=1;rounded=0;exitX=0;exitY=0.75;exitDx=0;exitDy=0;entryX=1;entryY=0.75;entryDx=0;entryDy=0;" edge="1" parent="1" source="6kc5aPjfgd5-RUPwg-ue-21" target="6kc5aPjfgd5-RUPwg-ue-19">
          <mxGeometry width="50" height="50" relative="1" as="geometry">
            <mxPoint x="400" y="350" as="sourcePoint" />
            <mxPoint x="450" y="300" as="targetPoint" />
          </mxGeometry>
        </mxCell>
        <mxCell id="6kc5aPjfgd5-RUPwg-ue-26" value="Todo List Data" style="edgeLabel;html=1;align=center;verticalAlign=middle;resizable=0;points=[];" vertex="1" connectable="0" parent="6kc5aPjfgd5-RUPwg-ue-23">
          <mxGeometry x="0.1869" relative="1" as="geometry">
            <mxPoint x="8" as="offset" />
          </mxGeometry>
        </mxCell>
      </root>
    </mxGraphModel>
  </diagram>
</mxfile>
